{
    "asset" : {
        "generator" : "Khronos glTF Blender I/O v1.6.16",
        "version" : "2.0"
    },
    "scene" : 0,
    "scenes" : [
        {
            "name" : "Scene",
            "nodes" : [
                0
            ]
        }
    ],
    "nodes" : [
        {
            "mesh" : 0,
            "name" : "tripo_node_b6aa9b52-fe99-476f-89e7-14a5b438c3ff",
            "rotation" : [
                0,
                -0.7071068286895752,
                0,
                0.7071068286895752
            ],
            "scale" : [
                1.5,
                1.5,
                1.5
            ],
            "translation" : [
                -6.121027399785817e-05,
                0.749870240688324,
                0.0001563951518619433
            ]
        }
    ],
    "materials" : [
        {
            "name" : "tripo_mat_b6aa9b52-fe99-476f-89e7-14a5b438c3ff",
            "pbrMetallicRoughness" : {
                "baseColorTexture" : {
                    "index" : 0
                },
                "metallicRoughnessTexture" : {
                    "index" : 1
                }
            }
        }
    ],
    "meshes" : [
        {
            "name" : "tripo_mesh_b6aa9b52-fe99-476f-89e7-14a5b438c3ff",
            "primitives" : [
                {
                    "attributes" : {
                        "POSITION" : 0,
                        "NORMAL" : 1,
                        "TEXCOORD_0" : 2
                    },
                    "indices" : 3,
                    "material" : 0
                }
            ]
        }
    ],
    "textures" : [
        {
            "sampler" : 0,
            "source" : 0
        },
        {
            "sampler" : 0,
            "source" : 1
        }
    ],
    "images" : [
        {
            "bufferView" : 4,
            "mimeType" : "image/jpeg",
            "name" : "baroquemilitaryuniform3dmodel_basecolor"
        },
        {
            "bufferView" : 5,
            "mimeType" : "image/jpeg",
            "name" : "baroquemilitaryuniform3dmodel_rm"
        }
    ],
    "accessors" : [
        {
            "bufferView" : 0,
            "componentType" : 5126,
            "count" : 14137,
            "max" : [
                0.12587665021419525,
                0.4999155104160309,
                0.2033841758966446
            ],
            "min" : [
                -0.12599866092205048,
                -0.49983587861061096,
                -0.20341700315475464
            ],
            "type" : "VEC3"
        },
        {
            "bufferView" : 1,
            "componentType" : 5126,
            "count" : 14137,
            "type" : "VEC3"
        },
        {
            "bufferView" : 2,
            "componentType" : 5126,
            "count" : 14137,
            "type" : "VEC2"
        },
        {
            "bufferView" : 3,
            "componentType" : 5123,
            "count" : 66711,
            "type" : "SCALAR"
        }
    ],
    "bufferViews" : [
        {
            "buffer" : 0,
            "byteLength" : 169644,
            "byteOffset" : 0
        },
        {
            "buffer" : 0,
            "byteLength" : 169644,
            "byteOffset" : 169644
        },
        {
            "buffer" : 0,
            "byteLength" : 113096,
            "byteOffset" : 339288
        },
        {
            "buffer" : 0,
            "byteLength" : 133422,
            "byteOffset" : 452384
        },
        {
            "buffer" : 0,
            "byteLength" : 262065,
            "byteOffset" : 585808
        },
        {
            "buffer" : 0,
            "byteLength" : 190901,
            "byteOffset" : 847876
        }
    ],
    "samplers" : [
        {
            "magFilter" : 9729,
            "minFilter" : 9987
        }
    ],
    "buffers" : [
        {
            "byteLength" : 1038780,
            "uri" : "data:application/octet-stream;base64,"
        }
    ]
}
