{
    "asset" : {
        "generator" : "Khronos glTF Blender I/O v1.6.16",
        "version" : "2.0"
    },
    "scene" : 0,
    "scenes" : [
        {
            "extras" : {
                "glTF2ExportSettings" : {
                    "export_apply" : 1,
                    "export_extras" : 1,
                    "export_format" : "GLTF_EMBEDDED",
                    "use_renderable" : 1,
                    "use_selection" : 1
                }
            },
            "name" : "Scene",
            "nodes" : [
                0
            ]
        }
    ],
    "nodes" : [
        {
            "mesh" : 0,
            "name" : "tripo_node_7df229b1-90fd-4010-a1be-d2ca1728c2d5",
            "rotation" : [
                0,
                -0.70710688829422,
                0,
                -0.7071067690849304
            ],
            "scale" : [
                2,
                2,
                2
            ]
        }
    ],
    "materials" : [
        {
            "doubleSided" : true,
            "name" : "tripo_mat_7df229b1-90fd-4010-a1be-d2ca1728c2d5",
            "pbrMetallicRoughness" : {
                "baseColorTexture" : {
                    "index" : 0
                },
                "metallicFactor" : 0,
                "roughnessFactor" : 0.5
            }
        }
    ],
    "meshes" : [
        {
            "name" : "tripo_mesh_7df229b1-90fd-4010-a1be-d2ca1728c2d5",
            "primitives" : [
                {
                    "attributes" : {
                        "POSITION" : 0,
                        "NORMAL" : 1,
                        "TEXCOORD_0" : 2
                    },
                    "indices" : 3,
                    "material" : 0
                }
            ]
        }
    ],
    "textures" : [
        {
            "sampler" : 0,
            "source" : 0
        }
    ],
    "images" : [
        {
            "bufferView" : 4,
            "mimeType" : "image/jpeg",
            "name" : "01-Helasnewtexture.glb_basecolor"
        }
    ],
    "accessors" : [
        {
            "bufferView" : 0,
            "componentType" : 5126,
            "count" : 11844,
            "max" : [
                0.17378324270248413,
                1,
                0.11149921268224716
            ],
            "min" : [
                -0.1742108017206192,
                2.920087536040228e-05,
                -0.11106697469949722
            ],
            "type" : "VEC3"
        },
        {
            "bufferView" : 1,
            "componentType" : 5126,
            "count" : 11844,
            "type" : "VEC3"
        },
        {
            "bufferView" : 2,
            "componentType" : 5126,
            "count" : 11844,
            "type" : "VEC2"
        },
        {
            "bufferView" : 3,
            "componentType" : 5123,
            "count" : 11844,
            "type" : "SCALAR"
        }
    ],
    "bufferViews" : [
        {
            "buffer" : 0,
            "byteLength" : 142128,
            "byteOffset" : 0
        },
        {
            "buffer" : 0,
            "byteLength" : 142128,
            "byteOffset" : 142128
        },
        {
            "buffer" : 0,
            "byteLength" : 94752,
            "byteOffset" : 284256
        },
        {
            "buffer" : 0,
            "byteLength" : 23688,
            "byteOffset" : 379008
        },
        {
            "buffer" : 0,
            "byteLength" : 272718,
            "byteOffset" : 402696
        }
    ],
    "samplers" : [
        {
            "magFilter" : 9729,
            "minFilter" : 9987
        }
    ],
    "buffers" : [
        {
            "byteLength" : 675416,
            "uri" : "data:application/octet-stream;base64,"
        }
    ]
}
