{
    "asset" : {
        "generator" : "Khronos glTF Blender I/O v1.6.16",
        "version" : "2.0"
    },
    "scene" : 0,
    "scenes" : [
        {
            "name" : "Scene",
            "nodes" : [
                0
            ]
        }
    ],
    "nodes" : [
        {
            "mesh" : 0,
            "name" : "tripo_node_518d0bf6-4223-4670-8835-b3f82ffe4941",
            "rotation" : [
                0,
                -0.6883545517921448,
                0,
                0.7253744006156921
            ]
        }
    ],
    "materials" : [
        {
            "name" : "tripo_mat_518d0bf6-4223-4670-8835-b3f82ffe4941",
            "pbrMetallicRoughness" : {
                "baseColorTexture" : {
                    "index" : 0
                },
                "metallicFactor" : 0,
                "roughnessFactor" : 0.8999999761581421
            }
        }
    ],
    "meshes" : [
        {
            "name" : "tripo_mesh_518d0bf6-4223-4670-8835-b3f82ffe4941",
            "primitives" : [
                {
                    "attributes" : {
                        "POSITION" : 0,
                        "NORMAL" : 1,
                        "TEXCOORD_0" : 2
                    },
                    "indices" : 3,
                    "material" : 0
                }
            ]
        }
    ],
    "textures" : [
        {
            "sampler" : 0,
            "source" : 0
        }
    ],
    "images" : [
        {
            "bufferView" : 4,
            "mimeType" : "image/jpeg",
            "name" : "03-helasclose_basecolor"
        }
    ],
    "accessors" : [
        {
            "bufferView" : 0,
            "componentType" : 5126,
            "count" : 65499,
            "max" : [
                0.1505226492881775,
                0.9998376369476318,
                0.19936096668243408
            ],
            "min" : [
                -0.1503676027059555,
                2.6224905013805255e-05,
                -0.19927062094211578
            ],
            "type" : "VEC3"
        },
        {
            "bufferView" : 1,
            "componentType" : 5126,
            "count" : 65499,
            "type" : "VEC3"
        },
        {
            "bufferView" : 2,
            "componentType" : 5126,
            "count" : 65499,
            "type" : "VEC2"
        },
        {
            "bufferView" : 3,
            "componentType" : 5123,
            "count" : 65499,
            "type" : "SCALAR"
        }
    ],
    "bufferViews" : [
        {
            "buffer" : 0,
            "byteLength" : 785988,
            "byteOffset" : 0
        },
        {
            "buffer" : 0,
            "byteLength" : 785988,
            "byteOffset" : 785988
        },
        {
            "buffer" : 0,
            "byteLength" : 523992,
            "byteOffset" : 1571976
        },
        {
            "buffer" : 0,
            "byteLength" : 130998,
            "byteOffset" : 2095968
        },
        {
            "buffer" : 0,
            "byteLength" : 895683,
            "byteOffset" : 2226968
        }
    ],
    "samplers" : [
        {
            "magFilter" : 9729,
            "minFilter" : 9987
        }
    ],
    "buffers" : [
        {
            "byteLength" : 3122652,
            "uri" : "data:application/octet-stream;base64,"
        }
    ]
}
