{
  "asset": {
    "version": "2.0",
    "generator": "THREE.GLTFExporter r183"
  },
  "scenes": [
    {
      "name": "helas-fragment.glb",
      "nodes": [
        0
      ],
      "extras": {
        "glTF2ExportSettings": {
          "export_apply": 1,
          "export_extras": 1,
          "export_tangents": 0,
          "use_active_collection": 0,
          "use_mesh_edges": 0,
          "use_mesh_vertices": 0,
          "use_renderable": 1,
          "use_selection": 1
        }
      }
    }
  ],
  "scene": 0,
  "nodes": [
    {
      "matrix": [
        -1.3435885648505064e-7,
        0,
        1.0000001343588565,
        0,
        0,
        1,
        0,
        0,
        -1.0000001343588565,
        0,
        -1.3435885648505064e-7,
        0,
        0,
        0,
        0,
        1
      ],
      "name": "tripo_node_94da3f35-53b2-4137-aeac-3b19c9456e49",
      "extras": {
        "name": "tripo_node_94da3f35-53b2-4137-aeac-3b19c9456e49"
      },
      "mesh": 0
    }
  ],
  "bufferViews": [
    {
      "buffer": 0,
      "byteOffset": 0,
      "byteLength": 317748,
      "target": 34962,
      "byteStride": 12
    },
    {
      "buffer": 0,
      "byteOffset": 317748,
      "byteLength": 317748,
      "target": 34962,
      "byteStride": 12
    },
    {
      "buffer": 0,
      "byteOffset": 635496,
      "byteLength": 211832,
      "target": 34962,
      "byteStride": 8
    },
    {
      "buffer": 0,
      "byteOffset": 847328,
      "byteLength": 67868,
      "target": 34963
    }
  ],
  "buffers": [
    {
      "byteLength": 915196,
      "uri": "data:application/octet-stream;base64,"
    }
  ],
  "accessors": [
    {
      "bufferView": 0,
      "componentType": 5126,
      "count": 26479,
      "max": [
        0.146087646484375,
        0.999298095703125,
        0.1971435546875
      ],
      "min": [
        -0.1466827392578125,
        0.0003662109375,
        -0.19744873046875
      ],
      "type": "VEC3"
    },
    {
      "bufferView": 1,
      "componentType": 5126,
      "count": 26479,
      "max": [
        1,
        0.9999828338623047,
        0.9999856352806091
      ],
      "min": [
        -0.9999998807907104,
        -0.9999945163726807,
        -0.9999785423278809
      ],
      "type": "VEC3"
    },
    {
      "bufferView": 2,
      "componentType": 5126,
      "count": 26479,
      "max": [
        1,
        0.9990234375
      ],
      "min": [
        0.0029296875,
        0.00146484375
      ],
      "type": "VEC2"
    },
    {
      "bufferView": 3,
      "componentType": 5123,
      "count": 33933,
      "max": [
        26478
      ],
      "min": [
        0
      ],
      "type": "SCALAR"
    }
  ],
  "materials": [
    {
      "pbrMetallicRoughness": {
        "metallicFactor": 0.15,
        "roughnessFactor": 0.3
      },
      "extensions": {
        "KHR_materials_ior": {
          "ior": 1.4999999999999998
        },
        "KHR_materials_iridescence": {
          "iridescenceFactor": 0.4,
          "iridescenceIor": 1.8,
          "iridescenceThicknessMinimum": 100,
          "iridescenceThicknessMaximum": 350
        }
      }
    }
  ],
  "meshes": [
    {
      "primitives": [
        {
          "mode": 4,
          "attributes": {
            "POSITION": 0,
            "NORMAL": 1,
            "TEXCOORD_0": 2
          },
          "indices": 3,
          "material": 0
        }
      ]
    }
  ],
  "extensionsUsed": [
    "KHR_materials_ior",
    "KHR_materials_iridescence"
  ]
}